<svg viewBox="0 0 1422 1422" fill="none" xmlns="http://www.w3.org/2000/svg">
<rect x="711" y="2.12132" width="1002.51" height="1002.51" rx="8.5" transform="rotate(45 711 2.12132)" fill="#0C0742" stroke="#A6FFFA" stroke-width="3"/>
<g filter="url(#filter0_d_3_12)">
<path d="M484.55 617.4V592.2H510.45V617.4H484.55ZM614.05 617.4V592.2H639.95V617.4H614.05ZM639.95 617.4V592.2H665.85V617.4H639.95ZM588.15 617.4V592.2H614.05V617.4H588.15ZM562.25 819V592.2H588.15V819H562.25ZM536.35 617.4V592.2H562.25V617.4H536.35ZM510.45 617.4V592.2H536.35V617.4H510.45ZM695.562 819V793.8H721.462V819H695.562ZM905.526 617.4V592.2H931.426V617.4H905.526ZM905.526 743.4V718.2H931.426V743.4H905.526ZM905.526 768.6V743.4H931.426V768.6H905.526ZM905.526 793.8V768.6H931.426V793.8H905.526ZM879.626 617.4V592.2H905.526V617.4H879.626ZM853.726 617.4V592.2H879.626V617.4H853.726ZM879.626 718.2V693H905.526V718.2H879.626ZM853.726 718.2V693H879.626V718.2H853.726ZM879.626 819V793.8H905.526V819H879.626ZM853.726 819V793.8H879.626V819H853.726ZM827.826 617.4V592.2H853.726V617.4H827.826ZM801.926 617.4V592.2H827.826V617.4H801.926ZM827.826 718.2V693H853.726V718.2H827.826ZM801.926 718.2V693H827.826V718.2H801.926ZM801.926 718.2H827.826H801.926ZM827.826 819V793.8H853.726V819H827.826ZM801.926 819V793.8H827.826V819H801.926ZM776.026 617.4V592.2H801.926V617.4H776.026ZM750.126 642.6V617.4H776.026V642.6H750.126ZM750.126 667.8V642.6H776.026V667.8H750.126ZM750.126 693V667.8H776.026V693H750.126ZM776.026 718.2V693H801.926V718.2H776.026ZM776.026 819V793.8H801.926V819H776.026ZM750.126 819V793.8H776.026V819H750.126Z" fill="#48FFF1"/>
</g>
<path d="M710.924 204.164C693.25 204.164 678.924 218.49 678.924 236.164C678.924 253.837 693.25 268.164 710.924 268.164C728.597 268.164 742.924 253.837 742.924 236.164C742.924 218.49 728.597 204.164 710.924 204.164ZM704.924 14L704.924 236.164L716.924 236.164L716.924 14L704.924 14Z" fill="#48FFF1" fill-opacity="0.75"/>
<path d="M1218 710.923C1218 693.25 1203.67 678.923 1186 678.923C1168.33 678.923 1154 693.25 1154 710.923C1154 728.596 1168.33 742.923 1186 742.923C1203.67 742.923 1218 728.596 1218 710.923ZM1408.16 704.923L1186 704.923L1186 716.923L1408.16 716.923L1408.16 704.923Z" fill="#48FFF1" fill-opacity="0.75"/>
<path d="M269.164 711C269.164 693.327 254.837 679 237.164 679C219.49 679 205.164 693.327 205.164 711C205.164 728.673 219.49 743 237.164 743C254.837 743 269.164 728.673 269.164 711ZM237.164 705L15 705L15 717L237.164 717L237.164 705Z" fill="#48FFF1" fill-opacity="0.75"/>
<path d="M710.924 1220C728.597 1220 742.924 1205.67 742.924 1188C742.924 1170.33 728.597 1156 710.924 1156C693.25 1156 678.924 1170.33 678.924 1188C678.924 1205.67 693.25 1220 710.924 1220ZM716.924 1410.16L716.924 1188L704.924 1188L704.924 1410.16L716.924 1410.16Z" fill="#48FFF1" fill-opacity="0.75"/>
<defs>
<filter id="filter0_d_3_12" x="444.55" y="592.2" width="486.876" height="238.8" filterUnits="userSpaceOnUse" color-interpolation-filters="sRGB">
<feFlood flood-opacity="0" result="BackgroundImageFix"/>
<feColorMatrix in="SourceAlpha" type="matrix" values="0 0 0 0 0 0 0 0 0 0 0 0 0 0 0 0 0 0 127 0" result="hardAlpha"/>
<feOffset dx="-36" dy="8"/>
<feGaussianBlur stdDeviation="2"/>
<feComposite in2="hardAlpha" operator="out"/>
<feColorMatrix type="matrix" values="0 0 0 0 0.282353 0 0 0 0 1 0 0 0 0 0.945098 0 0 0 0.65 0"/>
<feBlend mode="normal" in2="BackgroundImageFix" result="effect1_dropShadow_3_12"/>
<feBlend mode="normal" in="SourceGraphic" in2="effect1_dropShadow_3_12" result="shape"/>
</filter>
</defs>
</svg>
